<?xml version="1.0" encoding="UTF-8" standalone="no"?>
<svg width="200" height="200" viewBox="0 0 200 200" xmlns="http://www.w3.org/2000/svg">
  <!-- Shield shape -->
  <path d="M100,10 
           C130,10 160,20 180,40
           L180,80
           C180,130 150,170 100,190
           C50,170 20,130 20,80
           L20,40
           C40,20 70,10 100,10Z" 
        fill="#000000" />
  
  <!-- Globe grid lines -->
  <circle cx="100" cy="100" r="60" fill="none" stroke="#FFFFFF" stroke-width="4" />
  
  <!-- Vertical lines -->
  <path d="M100,40 L100,160" stroke="#FFFFFF" stroke-width="4" fill="none" />
  <path d="M70,45 C70,45 70,155 70,155" stroke="#FFFFFF" stroke-width="4" fill="none" />
  <path d="M130,45 C130,45 130,155 130,155" stroke="#FFFFFF" stroke-width="4" fill="none" />
  
  <!-- Horizontal lines -->
  <path d="M40,100 L160,100" stroke="#FFFFFF" stroke-width="4" fill="none" />
  <path d="M45,70 C45,70 155,70 155,70" stroke="#FFFFFF" stroke-width="4" fill="none" />
  <path d="M45,130 C45,130 155,130 155,130" stroke="#FFFFFF" stroke-width="4" fill="none" />
  
  <!-- Pulse effect around the logo -->
  <path d="M100,10 
           C130,10 160,20 180,40
           L180,80
           C180,130 150,170 100,190
           C50,170 20,130 20,80
           L20,40
           C40,20 70,10 100,10Z" 
        fill="none" 
        stroke="#E31837" 
        stroke-width="2" 
        opacity="0.5">
    <animate 
      attributeName="opacity" 
      values="0.5;0.2;0.5" 
      dur="2s" 
      repeatCount="indefinite" />
  </path>
</svg>
